<?xml version="1.0" encoding="iso-8859-1"?>
<!-- Uploaded to: SVG Repo, www.svgrepo.com, Generator: SVG Repo Mixer Tools -->
<svg height="800px" width="800px" version="1.1" id="Layer_1" xmlns="http://www.w3.org/2000/svg" xmlns:xlink="http://www.w3.org/1999/xlink" 
	 viewBox="0 0 512 512" xml:space="preserve">
<path style="fill:#4A5A67;" d="M512,256.006C512,397.402,397.394,512.004,256.004,512C114.606,512.004,0,397.402,0,256.006
	C-0.007,114.61,114.606,0,256.004,0C397.394,0,512,114.614,512,256.006z"/>
<g>
	<path style="fill:#444A54;" d="M506.31,202.289c-0.133-0.13-0.26-0.263-0.394-0.394c-0.524-0.537-96.596-96.611-97.135-97.135
		c-16.193-16.604-38.763-26.96-63.732-26.96c-49.127,0-89.099,39.967-89.099,89.1c0,24.97,10.356,47.539,26.961,63.732
		c0.525,0.538,176.222,176.235,176.761,176.761c0.524,0.536,1.051,1.063,1.603,1.603C493.135,366.317,512,313.367,512,256.005
		C512,237.575,510.011,219.615,506.31,202.289z"/>
	<path style="fill:#444A54;" d="M455.034,416.956c-0.5-0.492-69.386-69.485-69.961-69.961c-0.544-0.519-1.015-1.116-1.593-1.594
		c-0.544-0.518-220.78-220.875-221.361-221.357c-5.55-5.263-12.708-8.578-20.437-9.06c-9.386-0.479-18.597,2.907-25.254,9.578
		l-27.075,27.14c-15.038,15.067-36.813,63.335,85.459,185.87c0.258,0.258,0.495,0.479,0.753,0.734
		c0.289,0.291,0.549,0.566,0.839,0.858c0.256,0.258,158.95,158.949,159.241,159.241c0.235,0.235,0.453,0.441,0.684,0.667
		C383.44,483.516,424.49,454.683,455.034,416.956z"/>
</g>
<g>
	<path style="fill:#F6F6F6;" d="M384.368,346.898l-42.389-33.065c-11.964-9.325-28.634-9.267-40.529,0.145l-9.426,7.461
		c-7.15,5.655-17.403,5.054-23.849-1.392l-75.82-75.983c-6.453-6.475-7.055-16.771-1.396-23.95l7.446-9.447
		c9.39-11.906,9.452-28.591,0.145-40.569l-32.988-42.476c-5.779-7.446-14.484-12.051-23.881-12.638
		c-9.387-0.479-18.598,2.908-25.255,9.579l-27.075,27.14c-15.039,15.068-36.813,63.337,85.459,185.871
		c79.684,79.861,128.309,96.626,155.069,96.626c0.003,0,0,0,0.003,0c16.115,0,25.458-5.968,30.454-10.978l27.078-27.133
		c6.65-6.663,10.129-15.879,9.542-25.292C396.375,361.4,391.786,352.684,384.368,346.898z M376.903,385.603l-27.078,27.133
		c-3.009,3.017-8.915,6.613-19.943,6.613c-19.606,0-64.458-11.986-144.555-92.261c-92.269-92.464-103.703-146.621-85.46-164.9
		l27.075-27.14c3.379-3.387,7.958-5.271,12.707-5.271c0.37,0,0.739,0.007,1.113,0.036c5.141,0.319,9.905,2.843,13.073,6.917
		l32.992,42.476c5.105,6.577,5.072,15.734-0.08,22.268l-7.446,9.447c-10.31,13.081-9.219,31.839,2.542,43.629l75.823,75.989
		c11.782,11.797,30.515,12.878,43.574,2.545l9.426-7.461c6.505-5.17,15.636-5.199,22.177-0.087l42.389,33.065
		c4.071,3.175,6.588,7.962,6.907,13.117C382.462,376.887,380.55,381.941,376.903,385.603z"/>
	<path style="fill:#F6F6F6;" d="M345.051,77.801c-49.129,0-89.1,39.967-89.1,89.1s39.97,89.1,89.1,89.1s89.1-39.967,89.1-89.1
		S394.179,77.801,345.051,77.801z M345.051,241.15c-40.943,0-74.25-33.311-74.25-74.25s33.307-74.25,74.25-74.25
		s74.25,33.311,74.25,74.25S385.993,241.15,345.051,241.15z"/>
	<path style="fill:#F6F6F6;" d="M389.6,159.475h-37.125v-37.124c0-4.105-3.325-7.425-7.425-7.425c-4.1,0-7.425,3.321-7.425,7.425
		v37.124h-37.125c-4.1,0-7.425,3.321-7.425,7.425c0,4.105,3.325,7.425,7.425,7.425h37.125v37.125c0,4.105,3.325,7.425,7.425,7.425
		c4.1,0,7.425-3.321,7.425-7.425v-37.125H389.6c4.1,0,7.425-3.321,7.425-7.425C397.025,162.797,393.7,159.475,389.6,159.475z"/>
</g>
</svg>